<svg width="154" height="154" xmlns="http://www.w3.org/2000/svg" xmlns:xlink="http://www.w3.org/1999/xlink" xml:space="preserve" overflow="hidden"><defs><clipPath id="clip0"><rect x="1449" y="63" width="154" height="154"/></clipPath></defs><g clip-path="url(#clip0)" transform="translate(-1449 -63)"><path d="M1552.68 167.352 1571.73 167.122 1602.14 197.533 1582.87 216.807 1552.45 186.396Z" fill-rule="evenodd"/><path d="M1554.85 169.522 1570.9 169.328 1599.25 197.679 1583.01 213.918 1554.66 185.568Z" stroke="#000000" stroke-width="4.58333" stroke-linecap="round" stroke-linejoin="round" stroke-miterlimit="10" fill="#404040" fill-rule="evenodd"/><path d="M1449 127.5C1449 91.8776 1477.65 62.9999 1513 62.9999 1548.35 62.9999 1577 91.8776 1577 127.5 1577 163.122 1548.35 192 1513 192 1477.65 192 1449 163.122 1449 127.5Z" fill-rule="evenodd"/><path d="M1451 127.5C1451 92.9822 1478.76 65 1513 65 1547.24 65 1575 92.9822 1575 127.5 1575 162.018 1547.24 190 1513 190 1478.76 190 1451 162.018 1451 127.5Z" fill="#BFBFBF" fill-rule="evenodd"/><path d="M1458 127.5C1458 97.4003 1482.62 72.9999 1513 72.9999 1543.38 72.9999 1568 97.4003 1568 127.5 1568 157.599 1543.38 182 1513 182 1482.62 182 1458 157.599 1458 127.5Z" fill="#0070C0" fill-rule="evenodd"/><path d="M1485.7 92.0001 1503.65 138.249 1521.6 92.0001 1539.55 138.249 1545.67 122.499 1547.65 122.499 1547.65 122.499 1568 122.499 1568 131.24 1551.61 131.24 1539.67 162 1521.72 115.751 1503.76 162 1485.81 115.751 1479.8 131.24 1470.47 131.24 1470.47 131.24 1458 131.24 1458 122.499 1473.86 122.499Z" fill="#FFFFFF" fill-rule="evenodd"/></g></svg>