<svg width="1020" height="1021" xmlns="http://www.w3.org/2000/svg" xmlns:xlink="http://www.w3.org/1999/xlink" xml:space="preserve" overflow="hidden"><defs><clipPath id="clip0"><rect x="1743" y="416" width="1020" height="1021"/></clipPath></defs><g clip-path="url(#clip0)" transform="translate(-1743 -416)"><path d="M2434.33 1108.22 2560.88 1106.69 2762.96 1308.77 2634.88 1436.85 2432.8 1234.77Z" fill-rule="evenodd"/><path d="M2448.75 1122.65 2555.37 1121.36 2743.76 1309.74 2635.85 1417.65 2447.46 1229.27Z" stroke="#000000" stroke-width="4.58333" stroke-linecap="round" stroke-linejoin="round" stroke-miterlimit="10" fill="#404040" fill-rule="evenodd"/><path d="M1743 843.5C1743 607.398 1934.4 416 2170.5 416 2406.6 416 2598 607.398 2598 843.5 2598 1079.6 2406.6 1271 2170.5 1271 1934.4 1271 1743 1079.6 1743 843.5Z" fill-rule="evenodd"/><path d="M1759 843.5C1759 615.683 1943.68 431 2171.5 431 2399.32 431 2584 615.683 2584 843.5 2584 1071.32 2399.32 1256 2171.5 1256 1943.68 1256 1759 1071.32 1759 843.5Z" fill="#BFBFBF" fill-rule="evenodd"/><path d="M1808 843.5C1808 642.192 1971.19 479 2172.5 479 2373.81 479 2537 642.192 2537 843.5 2537 1044.81 2373.81 1208 2172.5 1208 1971.19 1208 1808 1044.81 1808 843.5Z" fill="#0070C0" fill-rule="evenodd"/><path d="M2067.7 687.16 2067.7 750.84 2277.3 750.84 2277.3 687.16ZM2023.47 643 2052.95 643 2067.7 643 2277.3 643 2302.3 643 2321.53 643 2321.53 675 2321.53 687.16 2321.53 696.92 2430 696.92 2430 741.08 2321.53 741.08 2321.53 750.84 2321.53 784.12 2321.53 795 2302.3 795 2277.3 795 2067.7 795 2052.95 795 2023.47 795 2023.47 784.12 2023.47 750.84 2023.47 741.08 1915 741.08 1915 696.92 2023.47 696.92 2023.47 687.16 2023.47 675Z" fill="#FFFFFF" fill-rule="evenodd"/><path d="M2067.7 938.16 2067.7 1001.84 2277.3 1001.84 2277.3 938.16ZM2023.47 894 2052.95 894 2067.7 894 2277.3 894 2302.3 894 2321.53 894 2321.53 926 2321.53 938.16 2321.53 947.92 2430 947.92 2430 992.08 2321.53 992.08 2321.53 1001.84 2321.53 1035.12 2321.53 1046 2302.3 1046 2277.3 1046 2067.7 1046 2052.95 1046 2023.47 1046 2023.47 1035.12 2023.47 1001.84 2023.47 992.08 1915 992.08 1915 947.92 2023.47 947.92 2023.47 938.16 2023.47 926Z" fill="#FFFFFF" fill-rule="evenodd"/><rect x="1915" y="696" width="44" height="297" fill="#FFFFFF"/><rect x="2386" y="696" width="44" height="297" fill="#FFFFFF"/><rect x="1808" y="823" width="151" height="44" fill="#FFFFFF"/><rect x="2386" y="823" width="151" height="44" fill="#FFFFFF"/></g></svg>